<mxfile host="app.diagrams.net" modified="2020-12-12T21:07:30.566Z" agent="5.0 (X11; Linux x86_64) AppleWebKit/537.36 (KHTML, like Gecko) Chrome/77.0.3865.120 Safari/537.36" etag="ckMGLapbI3yvzHlHYaeN" version="14.0.1" type="github">
  <diagram id="C5RBs43oDa-KdzZeNtuy" name="Page-1">
    <mxGraphModel dx="2182" dy="725" grid="1" gridSize="10" guides="1" tooltips="1" connect="1" arrows="1" fold="1" page="1" pageScale="1" pageWidth="827" pageHeight="1169" math="0" shadow="0">
      <root>
        <mxCell id="WIyWlLk6GJQsqaUBKTNV-0" />
        <mxCell id="WIyWlLk6GJQsqaUBKTNV-1" parent="WIyWlLk6GJQsqaUBKTNV-0" />
        <mxCell id="_ynaElvUxv59CEccyUQl-5" value="" style="endArrow=diamondThin;endFill=1;endSize=24;html=1;exitX=1.014;exitY=0.445;exitDx=0;exitDy=0;exitPerimeter=0;" parent="WIyWlLk6GJQsqaUBKTNV-1" source="P3Boi44p3jtgZ2md4cfZ-20" target="uC4lMjQUzB0orpD_JvIB-1" edge="1">
          <mxGeometry width="160" relative="1" as="geometry">
            <mxPoint x="420" y="389" as="sourcePoint" />
            <mxPoint x="640" y="399" as="targetPoint" />
          </mxGeometry>
        </mxCell>
        <mxCell id="_ynaElvUxv59CEccyUQl-6" value="1..*" style="text;html=1;align=center;verticalAlign=middle;resizable=0;points=[];autosize=1;" parent="WIyWlLk6GJQsqaUBKTNV-1" vertex="1">
          <mxGeometry x="485" y="380" width="30" height="20" as="geometry" />
        </mxCell>
        <mxCell id="_ynaElvUxv59CEccyUQl-7" value="1" style="text;html=1;align=center;verticalAlign=middle;resizable=0;points=[];autosize=1;" parent="WIyWlLk6GJQsqaUBKTNV-1" vertex="1">
          <mxGeometry x="630" y="370" width="20" height="20" as="geometry" />
        </mxCell>
        <mxCell id="_ynaElvUxv59CEccyUQl-23" value="TrilmaServer" style="swimlane;fontStyle=1;align=center;verticalAlign=top;childLayout=stackLayout;horizontal=1;startSize=26;horizontalStack=0;resizeParent=1;resizeParentMax=0;resizeLast=0;collapsible=1;marginBottom=0;" parent="WIyWlLk6GJQsqaUBKTNV-1" vertex="1">
          <mxGeometry x="-690" y="60" width="170" height="60" as="geometry" />
        </mxCell>
        <mxCell id="_ynaElvUxv59CEccyUQl-25" value="" style="line;strokeWidth=1;fillColor=none;align=left;verticalAlign=middle;spacingTop=-1;spacingLeft=3;spacingRight=3;rotatable=0;labelPosition=right;points=[];portConstraint=eastwest;" parent="_ynaElvUxv59CEccyUQl-23" vertex="1">
          <mxGeometry y="26" width="170" height="8" as="geometry" />
        </mxCell>
        <mxCell id="_ynaElvUxv59CEccyUQl-26" value="+ main(String[]): void {static}" style="text;strokeColor=none;fillColor=none;align=left;verticalAlign=top;spacingLeft=4;spacingRight=4;overflow=hidden;rotatable=0;points=[[0,0.5],[1,0.5]];portConstraint=eastwest;" parent="_ynaElvUxv59CEccyUQl-23" vertex="1">
          <mxGeometry y="34" width="170" height="26" as="geometry" />
        </mxCell>
        <mxCell id="_ynaElvUxv59CEccyUQl-27" value="TrilmaClient" style="swimlane;fontStyle=1;align=center;verticalAlign=top;childLayout=stackLayout;horizontal=1;startSize=26;horizontalStack=0;resizeParent=1;resizeParentMax=0;resizeLast=0;collapsible=1;marginBottom=0;" parent="WIyWlLk6GJQsqaUBKTNV-1" vertex="1">
          <mxGeometry x="-310" y="60" width="200" height="250" as="geometry" />
        </mxCell>
        <mxCell id="_ynaElvUxv59CEccyUQl-28" value="- frame: JFrame&#xa;- messageLabel: JLabel&#xa;- board: Board&#xa;- selectedField: Field&#xa;- targetField: Field&#xa;- socket: Socket&#xa;- input: Scanner&#xa;- output: PrintWriter" style="text;strokeColor=none;fillColor=none;align=left;verticalAlign=top;spacingLeft=4;spacingRight=4;overflow=hidden;rotatable=0;points=[[0,0.5],[1,0.5]];portConstraint=eastwest;" parent="_ynaElvUxv59CEccyUQl-27" vertex="1">
          <mxGeometry y="26" width="200" height="144" as="geometry" />
        </mxCell>
        <mxCell id="_ynaElvUxv59CEccyUQl-29" value="" style="line;strokeWidth=1;fillColor=none;align=left;verticalAlign=middle;spacingTop=-1;spacingLeft=3;spacingRight=3;rotatable=0;labelPosition=right;points=[];portConstraint=eastwest;" parent="_ynaElvUxv59CEccyUQl-27" vertex="1">
          <mxGeometry y="170" width="200" height="8" as="geometry" />
        </mxCell>
        <mxCell id="_ynaElvUxv59CEccyUQl-30" value="+ TrilmaClient(String serverAdress)&#xa;+ play(): void&#xa;+ main(String args[]): void {static}" style="text;strokeColor=none;fillColor=none;align=left;verticalAlign=top;spacingLeft=4;spacingRight=4;overflow=hidden;rotatable=0;points=[[0,0.5],[1,0.5]];portConstraint=eastwest;" parent="_ynaElvUxv59CEccyUQl-27" vertex="1">
          <mxGeometry y="178" width="200" height="72" as="geometry" />
        </mxCell>
        <mxCell id="P3Boi44p3jtgZ2md4cfZ-4" value="Player" style="swimlane;fontStyle=1;align=center;verticalAlign=top;childLayout=stackLayout;horizontal=1;startSize=26;horizontalStack=0;resizeParent=1;resizeParentMax=0;resizeLast=0;collapsible=1;marginBottom=0;" parent="WIyWlLk6GJQsqaUBKTNV-1" vertex="1">
          <mxGeometry x="-590" y="570" width="250" height="220" as="geometry" />
        </mxCell>
        <mxCell id="P3Boi44p3jtgZ2md4cfZ-5" value="+ name: String&#xa;+ color: Color&#xa;+ socket: Socket&#xa;+ input: Scanner&#xa;+ output: PrintWriter" style="text;strokeColor=none;fillColor=none;align=left;verticalAlign=top;spacingLeft=4;spacingRight=4;overflow=hidden;rotatable=0;points=[[0,0.5],[1,0.5]];portConstraint=eastwest;" parent="P3Boi44p3jtgZ2md4cfZ-4" vertex="1">
          <mxGeometry y="26" width="250" height="84" as="geometry" />
        </mxCell>
        <mxCell id="P3Boi44p3jtgZ2md4cfZ-6" value="" style="line;strokeWidth=1;fillColor=none;align=left;verticalAlign=middle;spacingTop=-1;spacingLeft=3;spacingRight=3;rotatable=0;labelPosition=right;points=[];portConstraint=eastwest;" parent="P3Boi44p3jtgZ2md4cfZ-4" vertex="1">
          <mxGeometry y="110" width="250" height="8" as="geometry" />
        </mxCell>
        <mxCell id="P3Boi44p3jtgZ2md4cfZ-7" value="+ Player(Socket, String, Color)&#xa;+ run(): void&#xa;- setup(): void&#xa;- processCommands(): void&#xa;- processMoveCommand(Point, Point): void" style="text;strokeColor=none;fillColor=none;align=left;verticalAlign=top;spacingLeft=4;spacingRight=4;overflow=hidden;rotatable=0;points=[[0,0.5],[1,0.5]];portConstraint=eastwest;" parent="P3Boi44p3jtgZ2md4cfZ-4" vertex="1">
          <mxGeometry y="118" width="250" height="102" as="geometry" />
        </mxCell>
        <mxCell id="P3Boi44p3jtgZ2md4cfZ-12" value="Peg" style="swimlane;fontStyle=1;align=center;verticalAlign=top;childLayout=stackLayout;horizontal=1;startSize=26;horizontalStack=0;resizeParent=1;resizeParentMax=0;resizeLast=0;collapsible=1;marginBottom=0;" parent="WIyWlLk6GJQsqaUBKTNV-1" vertex="1">
          <mxGeometry x="-40" y="275" width="160" height="210" as="geometry" />
        </mxCell>
        <mxCell id="P3Boi44p3jtgZ2md4cfZ-13" value="- ownerColor: Color&#xa;- in_base: boolean" style="text;strokeColor=none;fillColor=none;align=left;verticalAlign=top;spacingLeft=4;spacingRight=4;overflow=hidden;rotatable=0;points=[[0,0.5],[1,0.5]];portConstraint=eastwest;" parent="P3Boi44p3jtgZ2md4cfZ-12" vertex="1">
          <mxGeometry y="26" width="160" height="54" as="geometry" />
        </mxCell>
        <mxCell id="P3Boi44p3jtgZ2md4cfZ-14" value="" style="line;strokeWidth=1;fillColor=none;align=left;verticalAlign=middle;spacingTop=-1;spacingLeft=3;spacingRight=3;rotatable=0;labelPosition=right;points=[];portConstraint=eastwest;" parent="P3Boi44p3jtgZ2md4cfZ-12" vertex="1">
          <mxGeometry y="80" width="160" height="8" as="geometry" />
        </mxCell>
        <mxCell id="P3Boi44p3jtgZ2md4cfZ-15" value="+ Peg(Color)&#xa;+ getOwnerColor(): Color&#xa;+ inBase(): boolean&#xa;+ visit(BaseField): void&#xa;+ visit(InnerField): void" style="text;strokeColor=none;fillColor=none;align=left;verticalAlign=top;spacingLeft=4;spacingRight=4;overflow=hidden;rotatable=0;points=[[0,0.5],[1,0.5]];portConstraint=eastwest;" parent="P3Boi44p3jtgZ2md4cfZ-12" vertex="1">
          <mxGeometry y="88" width="160" height="122" as="geometry" />
        </mxCell>
        <mxCell id="P3Boi44p3jtgZ2md4cfZ-17" value="Field" style="swimlane;fontStyle=3;align=center;verticalAlign=top;childLayout=stackLayout;horizontal=1;startSize=26;horizontalStack=0;resizeParent=1;resizeParentMax=0;resizeLast=0;collapsible=1;marginBottom=0;" parent="WIyWlLk6GJQsqaUBKTNV-1" vertex="1">
          <mxGeometry x="275" y="275" width="210" height="188" as="geometry" />
        </mxCell>
        <mxCell id="P3Boi44p3jtgZ2md4cfZ-18" value="# visitor: Peg&#xa;# radius: float" style="text;strokeColor=none;fillColor=none;align=left;verticalAlign=top;spacingLeft=4;spacingRight=4;overflow=hidden;rotatable=0;points=[[0,0.5],[1,0.5]];portConstraint=eastwest;" parent="P3Boi44p3jtgZ2md4cfZ-17" vertex="1">
          <mxGeometry y="26" width="210" height="44" as="geometry" />
        </mxCell>
        <mxCell id="P3Boi44p3jtgZ2md4cfZ-19" value="" style="line;strokeWidth=1;fillColor=none;align=left;verticalAlign=middle;spacingTop=-1;spacingLeft=3;spacingRight=3;rotatable=0;labelPosition=right;points=[];portConstraint=eastwest;" parent="P3Boi44p3jtgZ2md4cfZ-17" vertex="1">
          <mxGeometry y="70" width="210" height="8" as="geometry" />
        </mxCell>
        <mxCell id="P3Boi44p3jtgZ2md4cfZ-20" value="+ accept(Peg): boolean {abstract}&#xa;+ getVisitor(): Peg" style="text;strokeColor=none;fillColor=none;align=left;verticalAlign=top;spacingLeft=4;spacingRight=4;overflow=hidden;rotatable=0;points=[[0,0.5],[1,0.5]];portConstraint=eastwest;fontStyle=0" parent="P3Boi44p3jtgZ2md4cfZ-17" vertex="1">
          <mxGeometry y="78" width="210" height="110" as="geometry" />
        </mxCell>
        <mxCell id="P3Boi44p3jtgZ2md4cfZ-25" value="BaseField" style="swimlane;fontStyle=1;align=center;verticalAlign=top;childLayout=stackLayout;horizontal=1;startSize=26;horizontalStack=0;resizeParent=1;resizeParentMax=0;resizeLast=0;collapsible=1;marginBottom=0;" parent="WIyWlLk6GJQsqaUBKTNV-1" vertex="1">
          <mxGeometry x="70" y="575" width="260" height="110" as="geometry" />
        </mxCell>
        <mxCell id="P3Boi44p3jtgZ2md4cfZ-26" value="- ownerColor: Color" style="text;strokeColor=none;fillColor=none;align=left;verticalAlign=top;spacingLeft=4;spacingRight=4;overflow=hidden;rotatable=0;points=[[0,0.5],[1,0.5]];portConstraint=eastwest;" parent="P3Boi44p3jtgZ2md4cfZ-25" vertex="1">
          <mxGeometry y="26" width="260" height="26" as="geometry" />
        </mxCell>
        <mxCell id="P3Boi44p3jtgZ2md4cfZ-27" value="" style="line;strokeWidth=1;fillColor=none;align=left;verticalAlign=middle;spacingTop=-1;spacingLeft=3;spacingRight=3;rotatable=0;labelPosition=right;points=[];portConstraint=eastwest;" parent="P3Boi44p3jtgZ2md4cfZ-25" vertex="1">
          <mxGeometry y="52" width="260" height="8" as="geometry" />
        </mxCell>
        <mxCell id="P3Boi44p3jtgZ2md4cfZ-28" value="+ BaseField(int x, int y, int r, Color ownerColor)&#xa;+ getOwnerColor(): Color" style="text;strokeColor=none;fillColor=none;align=left;verticalAlign=top;spacingLeft=4;spacingRight=4;overflow=hidden;rotatable=0;points=[[0,0.5],[1,0.5]];portConstraint=eastwest;" parent="P3Boi44p3jtgZ2md4cfZ-25" vertex="1">
          <mxGeometry y="60" width="260" height="50" as="geometry" />
        </mxCell>
        <mxCell id="P3Boi44p3jtgZ2md4cfZ-29" value="InnerField" style="swimlane;fontStyle=1;align=center;verticalAlign=top;childLayout=stackLayout;horizontal=1;startSize=26;horizontalStack=0;resizeParent=1;resizeParentMax=0;resizeLast=0;collapsible=1;marginBottom=0;" parent="WIyWlLk6GJQsqaUBKTNV-1" vertex="1">
          <mxGeometry x="450" y="575" width="160" height="60" as="geometry" />
        </mxCell>
        <mxCell id="P3Boi44p3jtgZ2md4cfZ-31" value="" style="line;strokeWidth=1;fillColor=none;align=left;verticalAlign=middle;spacingTop=-1;spacingLeft=3;spacingRight=3;rotatable=0;labelPosition=right;points=[];portConstraint=eastwest;" parent="P3Boi44p3jtgZ2md4cfZ-29" vertex="1">
          <mxGeometry y="26" width="160" height="8" as="geometry" />
        </mxCell>
        <mxCell id="P3Boi44p3jtgZ2md4cfZ-32" value="+ InnerField(int x, int y, int r)" style="text;strokeColor=none;fillColor=none;align=left;verticalAlign=top;spacingLeft=4;spacingRight=4;overflow=hidden;rotatable=0;points=[[0,0.5],[1,0.5]];portConstraint=eastwest;" parent="P3Boi44p3jtgZ2md4cfZ-29" vertex="1">
          <mxGeometry y="34" width="160" height="26" as="geometry" />
        </mxCell>
        <mxCell id="P3Boi44p3jtgZ2md4cfZ-33" value="Extends" style="endArrow=block;endSize=16;endFill=0;html=1;exitX=0.5;exitY=0;exitDx=0;exitDy=0;entryX=0.524;entryY=1.009;entryDx=0;entryDy=0;entryPerimeter=0;" parent="WIyWlLk6GJQsqaUBKTNV-1" source="P3Boi44p3jtgZ2md4cfZ-25" target="P3Boi44p3jtgZ2md4cfZ-20" edge="1">
          <mxGeometry width="160" relative="1" as="geometry">
            <mxPoint x="250" y="440" as="sourcePoint" />
            <mxPoint x="410" y="440" as="targetPoint" />
          </mxGeometry>
        </mxCell>
        <mxCell id="P3Boi44p3jtgZ2md4cfZ-34" value="Extends" style="endArrow=block;endSize=16;endFill=0;html=1;exitX=0.5;exitY=0;exitDx=0;exitDy=0;entryX=0.586;entryY=1.009;entryDx=0;entryDy=0;entryPerimeter=0;" parent="WIyWlLk6GJQsqaUBKTNV-1" source="P3Boi44p3jtgZ2md4cfZ-29" target="P3Boi44p3jtgZ2md4cfZ-20" edge="1">
          <mxGeometry width="160" relative="1" as="geometry">
            <mxPoint x="250" y="440" as="sourcePoint" />
            <mxPoint x="389" y="460" as="targetPoint" />
          </mxGeometry>
        </mxCell>
        <mxCell id="Z-ylLWO6KV1ZyLTaMgf_-4" value="Ellipse2D.Float" style="swimlane;fontStyle=1;align=center;verticalAlign=top;childLayout=stackLayout;horizontal=1;startSize=26;horizontalStack=0;resizeParent=1;resizeParentMax=0;resizeLast=0;collapsible=1;marginBottom=0;" parent="WIyWlLk6GJQsqaUBKTNV-1" vertex="1">
          <mxGeometry x="300" y="86" width="160" height="34" as="geometry" />
        </mxCell>
        <mxCell id="Z-ylLWO6KV1ZyLTaMgf_-6" value="" style="line;strokeWidth=1;fillColor=none;align=left;verticalAlign=middle;spacingTop=-1;spacingLeft=3;spacingRight=3;rotatable=0;labelPosition=right;points=[];portConstraint=eastwest;" parent="Z-ylLWO6KV1ZyLTaMgf_-4" vertex="1">
          <mxGeometry y="26" width="160" height="8" as="geometry" />
        </mxCell>
        <mxCell id="Z-ylLWO6KV1ZyLTaMgf_-8" value="Extends" style="endArrow=block;endSize=16;endFill=0;html=1;exitX=0.5;exitY=0;exitDx=0;exitDy=0;entryX=0.5;entryY=1;entryDx=0;entryDy=0;" parent="WIyWlLk6GJQsqaUBKTNV-1" source="P3Boi44p3jtgZ2md4cfZ-17" target="Z-ylLWO6KV1ZyLTaMgf_-4" edge="1">
          <mxGeometry width="160" relative="1" as="geometry">
            <mxPoint x="240" y="420" as="sourcePoint" />
            <mxPoint x="400" y="420" as="targetPoint" />
          </mxGeometry>
        </mxCell>
        <mxCell id="kYy_7Y2Fd9dhygYP-oi2-2" value="Game" style="swimlane;fontStyle=1;align=center;verticalAlign=top;childLayout=stackLayout;horizontal=1;startSize=26;horizontalStack=0;resizeParent=1;resizeParentMax=0;resizeLast=0;collapsible=1;marginBottom=0;" parent="WIyWlLk6GJQsqaUBKTNV-1" vertex="1">
          <mxGeometry x="-710" y="260" width="270" height="170" as="geometry" />
        </mxCell>
        <mxCell id="kYy_7Y2Fd9dhygYP-oi2-3" value="- board: Field[][]&#xa;- players: Player[]" style="text;strokeColor=none;fillColor=none;align=left;verticalAlign=top;spacingLeft=4;spacingRight=4;overflow=hidden;rotatable=0;points=[[0,0.5],[1,0.5]];portConstraint=eastwest;" parent="kYy_7Y2Fd9dhygYP-oi2-2" vertex="1">
          <mxGeometry y="26" width="270" height="64" as="geometry" />
        </mxCell>
        <mxCell id="kYy_7Y2Fd9dhygYP-oi2-4" value="" style="line;strokeWidth=1;fillColor=none;align=left;verticalAlign=middle;spacingTop=-1;spacingLeft=3;spacingRight=3;rotatable=0;labelPosition=right;points=[];portConstraint=eastwest;" parent="kYy_7Y2Fd9dhygYP-oi2-2" vertex="1">
          <mxGeometry y="90" width="270" height="8" as="geometry" />
        </mxCell>
        <mxCell id="kYy_7Y2Fd9dhygYP-oi2-5" value="+ Game(int playersNumber)&#xa;+ winner(): Player&#xa;+ move(Point, Point, Player): void {synchronized}" style="text;strokeColor=none;fillColor=none;align=left;verticalAlign=top;spacingLeft=4;spacingRight=4;overflow=hidden;rotatable=0;points=[[0,0.5],[1,0.5]];portConstraint=eastwest;" parent="kYy_7Y2Fd9dhygYP-oi2-2" vertex="1">
          <mxGeometry y="98" width="270" height="72" as="geometry" />
        </mxCell>
        <mxCell id="kYy_7Y2Fd9dhygYP-oi2-12" value="" style="endArrow=open;startArrow=circlePlus;endFill=0;startFill=0;endSize=8;html=1;exitX=0.467;exitY=1.029;exitDx=0;exitDy=0;exitPerimeter=0;entryX=0.5;entryY=0;entryDx=0;entryDy=0;" parent="WIyWlLk6GJQsqaUBKTNV-1" source="kYy_7Y2Fd9dhygYP-oi2-5" target="P3Boi44p3jtgZ2md4cfZ-4" edge="1">
          <mxGeometry width="160" relative="1" as="geometry">
            <mxPoint x="-240" y="330" as="sourcePoint" />
            <mxPoint x="-80" y="330" as="targetPoint" />
          </mxGeometry>
        </mxCell>
        <mxCell id="kYy_7Y2Fd9dhygYP-oi2-14" value="" style="endArrow=none;html=1;edgeStyle=orthogonalEdgeStyle;exitX=1;exitY=0.5;exitDx=0;exitDy=0;entryX=0;entryY=0.5;entryDx=0;entryDy=0;" parent="WIyWlLk6GJQsqaUBKTNV-1" source="P3Boi44p3jtgZ2md4cfZ-13" target="P3Boi44p3jtgZ2md4cfZ-18" edge="1">
          <mxGeometry relative="1" as="geometry">
            <mxPoint x="230" y="280" as="sourcePoint" />
            <mxPoint x="270" y="310" as="targetPoint" />
          </mxGeometry>
        </mxCell>
        <mxCell id="kYy_7Y2Fd9dhygYP-oi2-15" value="visitor" style="edgeLabel;resizable=0;html=1;align=left;verticalAlign=bottom;" parent="kYy_7Y2Fd9dhygYP-oi2-14" connectable="0" vertex="1">
          <mxGeometry x="-1" relative="1" as="geometry" />
        </mxCell>
        <mxCell id="kYy_7Y2Fd9dhygYP-oi2-16" value="visited" style="edgeLabel;resizable=0;html=1;align=right;verticalAlign=bottom;" parent="kYy_7Y2Fd9dhygYP-oi2-14" connectable="0" vertex="1">
          <mxGeometry x="1" relative="1" as="geometry" />
        </mxCell>
        <mxCell id="kYy_7Y2Fd9dhygYP-oi2-17" value="" style="endArrow=open;endFill=1;endSize=12;html=1;entryX=0.5;entryY=0;entryDx=0;entryDy=0;exitX=0.482;exitY=1;exitDx=0;exitDy=0;exitPerimeter=0;" parent="WIyWlLk6GJQsqaUBKTNV-1" source="_ynaElvUxv59CEccyUQl-26" target="kYy_7Y2Fd9dhygYP-oi2-2" edge="1">
          <mxGeometry width="160" relative="1" as="geometry">
            <mxPoint x="-640" y="170" as="sourcePoint" />
            <mxPoint x="-430" y="330" as="targetPoint" />
          </mxGeometry>
        </mxCell>
        <mxCell id="kYy_7Y2Fd9dhygYP-oi2-18" value="&amp;lt;&amp;lt;runs&amp;gt;&amp;gt;" style="text;html=1;align=center;verticalAlign=middle;resizable=0;points=[];autosize=1;" parent="WIyWlLk6GJQsqaUBKTNV-1" vertex="1">
          <mxGeometry x="-610" y="175" width="70" height="20" as="geometry" />
        </mxCell>
        <mxCell id="kYy_7Y2Fd9dhygYP-oi2-19" value="" style="endArrow=none;html=1;edgeStyle=orthogonalEdgeStyle;exitX=1;exitY=0.25;exitDx=0;exitDy=0;entryX=0;entryY=0.064;entryDx=0;entryDy=0;entryPerimeter=0;" parent="WIyWlLk6GJQsqaUBKTNV-1" source="_ynaElvUxv59CEccyUQl-23" target="_ynaElvUxv59CEccyUQl-27" edge="1">
          <mxGeometry relative="1" as="geometry">
            <mxPoint x="-450" y="320" as="sourcePoint" />
            <mxPoint x="-290" y="320" as="targetPoint" />
          </mxGeometry>
        </mxCell>
        <mxCell id="kYy_7Y2Fd9dhygYP-oi2-20" value="server" style="edgeLabel;resizable=0;html=1;align=left;verticalAlign=bottom;" parent="kYy_7Y2Fd9dhygYP-oi2-19" connectable="0" vertex="1">
          <mxGeometry x="-1" relative="1" as="geometry" />
        </mxCell>
        <mxCell id="kYy_7Y2Fd9dhygYP-oi2-21" value="client" style="edgeLabel;resizable=0;html=1;align=right;verticalAlign=bottom;" parent="kYy_7Y2Fd9dhygYP-oi2-19" connectable="0" vertex="1">
          <mxGeometry x="1" relative="1" as="geometry" />
        </mxCell>
        <mxCell id="uC4lMjQUzB0orpD_JvIB-0" value="Board" style="swimlane;fontStyle=1;align=center;verticalAlign=top;childLayout=stackLayout;horizontal=1;startSize=26;horizontalStack=0;resizeParent=1;resizeParentMax=0;resizeLast=0;collapsible=1;marginBottom=0;" parent="WIyWlLk6GJQsqaUBKTNV-1" vertex="1">
          <mxGeometry x="650" y="360" width="160" height="86" as="geometry" />
        </mxCell>
        <mxCell id="uC4lMjQUzB0orpD_JvIB-1" value="+ fields: Field[][]" style="text;strokeColor=none;fillColor=none;align=left;verticalAlign=top;spacingLeft=4;spacingRight=4;overflow=hidden;rotatable=0;points=[[0,0.5],[1,0.5]];portConstraint=eastwest;" parent="uC4lMjQUzB0orpD_JvIB-0" vertex="1">
          <mxGeometry y="26" width="160" height="26" as="geometry" />
        </mxCell>
        <mxCell id="uC4lMjQUzB0orpD_JvIB-2" value="" style="line;strokeWidth=1;fillColor=none;align=left;verticalAlign=middle;spacingTop=-1;spacingLeft=3;spacingRight=3;rotatable=0;labelPosition=right;points=[];portConstraint=eastwest;" parent="uC4lMjQUzB0orpD_JvIB-0" vertex="1">
          <mxGeometry y="52" width="160" height="8" as="geometry" />
        </mxCell>
        <mxCell id="uC4lMjQUzB0orpD_JvIB-3" value="+ Board(int): Field" style="text;strokeColor=none;fillColor=none;align=left;verticalAlign=top;spacingLeft=4;spacingRight=4;overflow=hidden;rotatable=0;points=[[0,0.5],[1,0.5]];portConstraint=eastwest;" parent="uC4lMjQUzB0orpD_JvIB-0" vertex="1">
          <mxGeometry y="60" width="160" height="26" as="geometry" />
        </mxCell>
        <mxCell id="yNwzJa3b2GLb2ZnY-UvL-1" value="«interface»&lt;br&gt;&lt;b&gt;Runnable&lt;/b&gt;" style="html=1;" vertex="1" parent="WIyWlLk6GJQsqaUBKTNV-1">
          <mxGeometry x="-330" y="430" width="110" height="50" as="geometry" />
        </mxCell>
        <mxCell id="yNwzJa3b2GLb2ZnY-UvL-2" value="" style="endArrow=block;dashed=1;endFill=0;endSize=12;html=1;exitX=0.592;exitY=-0.014;exitDx=0;exitDy=0;exitPerimeter=0;entryX=0.5;entryY=1;entryDx=0;entryDy=0;" edge="1" parent="WIyWlLk6GJQsqaUBKTNV-1" source="P3Boi44p3jtgZ2md4cfZ-4" target="yNwzJa3b2GLb2ZnY-UvL-1">
          <mxGeometry width="160" relative="1" as="geometry">
            <mxPoint x="-220" y="450" as="sourcePoint" />
            <mxPoint x="-60" y="450" as="targetPoint" />
          </mxGeometry>
        </mxCell>
      </root>
    </mxGraphModel>
  </diagram>
</mxfile>
